<svg width="28" height="28" viewBox="0 0 28 28" fill="none" xmlns="http://www.w3.org/2000/svg">
<path d="M8.66667 2H4.66667C3.95942 2 3.28115 2.28095 2.78105 2.78105C2.28095 3.28115 2 3.95942 2 4.66667V8.66667M26 8.66667V4.66667C26 3.95942 25.719 3.28115 25.219 2.78105C24.7189 2.28095 24.0406 2 23.3333 2H19.3333M19.3333 26H23.3333C24.0406 26 24.7189 25.719 25.219 25.219C25.719 24.7189 26 24.0406 26 23.3333V19.3333M2 19.3333V23.3333C2 24.0406 2.28095 24.7189 2.78105 25.219C3.28115 25.719 3.95942 26 4.66667 26H8.66667" stroke="white" stroke-width="3" stroke-linecap="round" stroke-linejoin="round"/>
</svg>
